<?xml version="1.0" encoding="UTF-8"?>
<svg version="1.1" xmlns="http://www.w3.org/2000/svg" width="32" height="32">
<path d="M0 0 C0.91180953 7.35960546 1.10553556 14.58905867 1 22 C1 22.66 1 23.32 1 24 C1.66 24.66 2.32 25.32 3 26 C3.1875 28.5625 3.1875 28.5625 3 31 C2 32 2 32 -0.40844727 32.11352539 C-1.45057373 32.10828857 -2.4927002 32.10305176 -3.56640625 32.09765625 C-4.69111328 32.09443359 -5.81582031 32.09121094 -6.97460938 32.08789062 C-8.15861328 32.07951172 -9.34261719 32.07113281 -10.5625 32.0625 C-11.75037109 32.05798828 -12.93824219 32.05347656 -14.16210938 32.04882812 C-17.10812226 32.03699675 -20.05403681 32.02051287 -23 32 C-21.25 28.125 -21.25 28.125 -19 27 C-19.9590625 26.566875 -19.9590625 26.566875 -20.9375 26.125 C-23 25 -23 25 -24 23 C-26.01669827 21.86649466 -26.01669827 21.86649466 -28 21 C-27.67 20.67 -27.34 20.34 -27 20 C-26.8386942 16.93518979 -27.01849759 14.94450722 -28 12 C-28.27572045 7.77228646 -27.80448486 4.83453034 -26 1 C-22.40608886 2.33488128 -19.24509304 3.96022723 -16 6 C-15.34 4.68 -14.68 3.36 -14 2 C-13.01 2 -12.02 2 -11 2 C-11.33 2.99 -11.66 3.98 -12 5 C-7.42602709 4.29631186 -4.38458102 0 0 0 Z M-2 23 C-3.32 23.99 -4.64 24.98 -6 26 C-4.515 26.99 -4.515 26.99 -3 28 C-3 27.34 -3 26.68 -3 26 C-2.34 26 -1.68 26 -1 26 C-1.33 25.01 -1.66 24.02 -2 23 Z " fill="#413758" transform="translate(28,0)"/>
<path d="M0 0 C0.66 0.33 1.32 0.66 2 1 C2 1.66 2 2.32 2 3 C3.65 3.33 5.3 3.66 7 4 C7 5.98 7 7.96 7 10 C8.32 10 9.64 10 11 10 C11.33 9.01 11.66 8.02 12 7 C13.5 8.1875 13.5 8.1875 15 10 C15.25 12.625 15.25 12.625 15 15 C14 16 14 16 11.59155273 16.11352539 C10.54942627 16.10828857 9.5072998 16.10305176 8.43359375 16.09765625 C7.30888672 16.09443359 6.18417969 16.09121094 5.02539062 16.08789062 C3.84138672 16.07951172 2.65738281 16.07113281 1.4375 16.0625 C0.24962891 16.05798828 -0.93824219 16.05347656 -2.16210938 16.04882812 C-5.10812226 16.03699675 -8.05403681 16.02051287 -11 16 C-9.25 12.125 -9.25 12.125 -7 11 C-8.32 10.34 -9.64 9.68 -11 9 C-10.67 8.01 -10.34 7.02 -10 6 C-8.35 6 -6.7 6 -5 6 C-5.99 4.68 -6.98 3.36 -8 2 C-5.36 2.33 -2.72 2.66 0 3 C0 2.01 0 1.02 0 0 Z " fill="#73798C" transform="translate(16,16)"/>
<path d="M0 0 C3.65316671 1.24976756 4.78065836 1.67098753 7 5 C5.35 4.67 3.7 4.34 2 4 C2 5.65 2 7.3 2 9 C2.66 9 3.32 9 4 9 C4.33 9.99 4.66 10.98 5 12 C5.63808594 12.04898437 6.27617187 12.09796875 6.93359375 12.1484375 C7.75988281 12.22320312 8.58617187 12.29796875 9.4375 12.375 C10.26121094 12.44460938 11.08492187 12.51421875 11.93359375 12.5859375 C12.95646484 12.79089844 12.95646484 12.79089844 14 13 C14.33 13.66 14.66 14.32 15 15 C14.67 15.99 14.34 16.98 14 18 C12.02 18 10.04 18 8 18 C8.33 18.99 8.66 19.98 9 21 C2.6 22.23076923 2.6 22.23076923 -0.4375 21.0625 C-1.2109375 20.5365625 -1.2109375 20.5365625 -2 20 C-1.67 19.67 -1.34 19.34 -1 19 C-0.8386942 15.93518979 -1.01849759 13.94450722 -2 11 C-2.27572045 6.77228646 -1.80448486 3.83453034 0 0 Z " fill="#61596E" transform="translate(2,1)"/>
<path d="M0 0 C0.66 0.33 1.32 0.66 2 1 C2 1.66 2 2.32 2 3 C3.65 3.33 5.3 3.66 7 4 C6.67 5.65 6.34 7.3 6 9 C4.35 9 2.7 9 1 9 C1 9.66 1 10.32 1 11 C-2.63 10.67 -6.26 10.34 -10 10 C-10 8.68 -10 7.36 -10 6 C-8.35 6 -6.7 6 -5 6 C-5.99 4.68 -6.98 3.36 -8 2 C-5.36 2.33 -2.72 2.66 0 3 C0 2.01 0 1.02 0 0 Z " fill="#E8C9B9" transform="translate(16,16)"/>
<path d="M0 0 C0.19551338 1.60320974 0.38111983 3.20762986 0.5625 4.8125 C0.66691406 5.70582031 0.77132813 6.59914063 0.87890625 7.51953125 C1 10 1 10 0 13 C-0.66 13 -1.32 13 -2 13 C-3.23076923 7.58461538 -3.23076923 7.58461538 -2.0625 4.625 C-1.5365625 3.820625 -1.5365625 3.820625 -1 3 C-2.299375 3.680625 -2.299375 3.680625 -3.625 4.375 C-9.4340698 7.17195953 -14.64436106 8.34252011 -21 9 C-20.34 8.01 -19.68 7.02 -19 6 C-18.01 6 -17.02 6 -16 6 C-15.34 4.68 -14.68 3.36 -14 2 C-13.01 2 -12.02 2 -11 2 C-11.33 2.99 -11.66 3.98 -12 5 C-7.42602709 4.29631186 -4.38458102 0 0 0 Z " fill="#A59BAB" transform="translate(28,0)"/>
<path d="M0 0 C3.65316671 1.24976756 4.78065836 1.67098753 7 5 C5.35 4.67 3.7 4.34 2 4 C2 5.65 2 7.3 2 9 C2.66 9.33 3.32 9.66 4 10 C3.67 10.99 3.34 11.98 3 13 C2.34 13 1.68 13 1 13 C1.185625 13.94875 1.37125 14.8975 1.5625 15.875 C2 19 2 19 1 21 C0.01 20.67 -0.98 20.34 -2 20 C-1.67 19.67 -1.34 19.34 -1 19 C-0.8386942 15.93518979 -1.01849759 13.94450722 -2 11 C-2.27572045 6.77228646 -1.80448486 3.83453034 0 0 Z " fill="#A397A0" transform="translate(2,1)"/>
<path d="M0 0 C0.33 1.98 0.66 3.96 1 6 C-3.75 9 -3.75 9 -6 9 C-6.103125 8.38125 -6.20625 7.7625 -6.3125 7.125 C-6.87525373 4.63473516 -6.87525373 4.63473516 -10 3 C-9.67 2.01 -9.34 1.02 -9 0 C-5.62182575 -0.84454356 -3.32534757 -1.10844919 0 0 Z " fill="#4A4A65" transform="translate(28,16)"/>
<path d="M0 0 C2 1.1875 2 1.1875 4 3 C4.3125 5.625 4.3125 5.625 4 8 C3 9 3 9 0.71484375 9.09765625 C-0.65994141 9.08025391 -0.65994141 9.08025391 -2.0625 9.0625 C-2.98160156 9.05347656 -3.90070312 9.04445313 -4.84765625 9.03515625 C-5.55792969 9.02355469 -6.26820312 9.01195312 -7 9 C-7 8.67 -7 8.34 -7 8 C-5.35 8 -3.7 8 -2 8 C-2.33 7.01 -2.66 6.02 -3 5 C-2.67 4.34 -2.34 3.68 -2 3 C-1.34 3 -0.68 3 0 3 C0 2.01 0 1.02 0 0 Z " fill="#585B7A" transform="translate(27,23)"/>
<path d="M0 0 C0.66 1.65 1.32 3.3 2 5 C2.66 5 3.32 5 4 5 C3.67 5.99 3.34 6.98 3 8 C3 7.34 3 6.68 3 6 C2.319375 6.20625 1.63875 6.4125 0.9375 6.625 C-2.78833331 7.10063829 -5.46992554 6.17669149 -9 5 C-7.36885863 1.73771726 -3.62038485 0 0 0 Z " fill="#392F4D" transform="translate(24,8)"/>
<path d="M0 0 C0.66 0.33 1.32 0.66 2 1 C2 1.66 2 2.32 2 3 C2.99 3.33 3.98 3.66 5 4 C4.67 4.66 4.34 5.32 4 6 C3.01 6 2.02 6 1 6 C1 5.34 1 4.68 1 4 C-0.65 4 -2.3 4 -4 4 C-4 4.99 -4 5.98 -4 7 C-5.32 6.67 -6.64 6.34 -8 6 C-7.01 6 -6.02 6 -5 6 C-5.99 4.68 -6.98 3.36 -8 2 C-5.36 2.33 -2.72 2.66 0 3 C0 2.01 0 1.02 0 0 Z " fill="#B09A8C" transform="translate(16,16)"/>
<path d="M0 0 C-0.66 2.31 -1.32 4.62 -2 7 C-2.33 6.34 -2.66 5.68 -3 5 C-4.98 5.99 -4.98 5.99 -7 7 C-7 5.68 -7 4.36 -7 3 C-4.49515403 0.58152803 -3.53986194 0 0 0 Z " fill="#4C3F5E" transform="translate(27,3)"/>
<path d="M0 0 C0.33 0.66 0.66 1.32 1 2 C2.65 2 4.3 2 6 2 C6.33 2.99 6.66 3.98 7 5 C3.25 8 3.25 8 1 8 C0.17361624 5.10765685 0 3.11257569 0 0 Z " fill="#595C71" transform="translate(21,17)"/>
<path d="M0 0 C1.65 0 3.3 0 5 0 C5.33 0.66 5.66 1.32 6 2 C1.88581814 3.99475484 -1.44755354 4.34358086 -6 4 C-6.66 3.34 -7.32 2.68 -8 2 C-4.71303767 1.20046862 -3.28976808 0.90341064 0 2 C0 1.34 0 0.68 0 0 Z " fill="#655662" transform="translate(17,25)"/>
<path d="M0 0 C0.99 0 1.98 0 3 0 C2.34 1.98 1.68 3.96 1 6 C-1.64 6.33 -4.28 6.66 -7 7 C-6.34 6.01 -5.68 5.02 -5 4 C-4.01 4 -3.02 4 -2 4 C-1.34 2.68 -0.68 1.36 0 0 Z " fill="#92828D" transform="translate(14,2)"/>
<path d="M0 0 C0.99 0.66 1.98 1.32 3 2 C2.67 2.99 2.34 3.98 2 5 C1.34 5 0.68 5 0 5 C0.185625 5.94875 0.37125 6.8975 0.5625 7.875 C1 11 1 11 0 13 C-0.99 12.67 -1.98 12.34 -3 12 C-2.67 11.67 -2.34 11.34 -2 11 C-1.79224439 9.33795513 -1.63281745 7.66970509 -1.5 6 C-1.11111111 1.11111111 -1.11111111 1.11111111 0 0 Z " fill="#C3B9C1" transform="translate(3,9)"/>
<path d="M0 0 C1.65 0.33 3.3 0.66 5 1 C5.33 1.99 5.66 2.98 6 4 C3.36 4 0.72 4 -2 4 C-1.34 2.68 -0.68 1.36 0 0 Z " fill="#C0BEC8" transform="translate(7,28)"/>
<path d="M0 0 C1.32 0.33 2.64 0.66 4 1 C3.01 1 2.02 1 1 1 C1 2.32 1 3.64 1 5 C-1.31 5.33 -3.62 5.66 -6 6 C-6 4.68 -6 3.36 -6 2 C-3.03 2.495 -3.03 2.495 0 3 C0 2.01 0 1.02 0 0 Z " fill="#F5DBCC" transform="translate(12,20)"/>
<path d="M0 0 C1.32 0 2.64 0 4 0 C4.33 1.32 4.66 2.64 5 4 C3.02 4.33 1.04 4.66 -1 5 C-0.67 3.35 -0.34 1.7 0 0 Z " fill="#D6D2D8" transform="translate(20,27)"/>
<path d="M0 0 C2.475 0.99 2.475 0.99 5 2 C4.34 3.65 3.68 5.3 3 7 C2.01 6.67 1.02 6.34 0 6 C-0.38218767 4.34385343 -0.71395102 2.67542976 -1 1 C-0.67 0.67 -0.34 0.34 0 0 Z " fill="#534664" transform="translate(4,4)"/>
<path d="M0 0 C0.66 0 1.32 0 2 0 C1.45276317 3.37462715 0.9451 5.08235 -1 8 C-1.625 5.6875 -1.625 5.6875 -2 3 C-1.34 2.01 -0.68 1.02 0 0 Z " fill="#47455E" transform="translate(5,15)"/>
</svg>
